<?xml version="1.0" encoding="utf-8"?>
<!-- Generator: Adobe Illustrator 23.0.0, SVG Export Plug-In . SVG Version: 6.00 Build 0)  -->
<svg version="1.1" id="Layer_1" xmlns="http://www.w3.org/2000/svg" xmlns:xlink="http://www.w3.org/1999/xlink" x="0px" y="0px"
	 viewBox="0 0 45 45" style="enable-background:new 0 0 45 45;" xml:space="preserve">
<style type="text/css">
	.st0{enable-background:new    ;}
	.st1{clip-path:url(#SVGID_2_);enable-background:new    ;}
	.st2{fill:#2A7D00;}
	.st3{fill:#2B8000;}
	.st4{fill:#2C8300;}
	.st5{fill:#2D8500;}
	.st6{fill:#2E8800;}
	.st7{fill:#2F8B00;}
	.st8{fill:#297A00;}
	.st9{fill:#287800;}
	.st10{fill:#277500;}
	.st11{fill:#277200;}
	.st12{fill:#266F00;}
	.st13{fill:#256C00;}
	.st14{fill:#246A00;}
	.st15{fill:#236700;}
	.st16{fill:#226400;}
	.st17{fill:#216100;}
	.st18{fill:#205F00;}
	.st19{fill:#1F5C00;}
	.st20{fill:#1E5900;}
	.st21{fill:#1D5600;}
	.st22{fill:#1C5300;}
	.st23{fill:#1B5100;}
	.st24{fill:#297900;}
</style>
<g>
	<g>
		<g class="st0">
			<g class="st0">
				<defs>
					<path id="SVGID_1_" class="st0" d="M22.5,4.5l0-4c12.15,0,22,9.85,22,22s-9.85,22-22,22s-22-9.85-22-22s9.85-22,22-22L22.5,4.5
						c-9.94,0-18,8.06-18,18c0,9.94,8.06,18,18,18c9.94,0,18-8.06,18-18C40.5,12.56,32.44,4.5,22.5,4.5z"/>
				</defs>
				<clipPath id="SVGID_2_">
					<use xlink:href="#SVGID_1_"  style="overflow:visible;"/>
				</clipPath>
				<g class="st1">
					<path class="st2" d="M22.5,4.5l0-4c0.28,0,0.57,0.01,0.85,0.02l-0.15,4C22.96,4.51,22.73,4.5,22.5,4.5"/>
					<path class="st3" d="M23.19,4.52l0.15-4c0.76,0.03,1.51,0.1,2.24,0.2l-0.56,3.96C24.42,4.6,23.81,4.54,23.19,4.52"/>
					<path class="st4" d="M25.03,4.68l0.56-3.96c0.82,0.11,1.62,0.27,2.4,0.48l-1,3.87C26.35,4.9,25.7,4.77,25.03,4.68"/>
					<path class="st5" d="M26.99,5.07l1-3.87c0.93,0.24,1.84,0.54,2.71,0.89L29.21,5.8C28.5,5.51,27.75,5.26,26.99,5.07"/>
					<path class="st6" d="M29.21,5.8l1.49-3.71c1.17,0.47,2.28,1.04,3.34,1.69l-2.1,3.41C31.08,6.65,30.17,6.18,29.21,5.8"/>
					<path class="st7" d="M31.95,7.18l2.1-3.41c3.94,2.43,7.05,6.07,8.82,10.4l-3.7,1.51C37.72,12.15,35.17,9.17,31.95,7.18"/>
					<path class="st6" d="M39.16,15.69l3.7-1.51c0.47,1.14,0.84,2.34,1.11,3.57l-3.91,0.87C39.85,17.61,39.55,16.63,39.16,15.69"/>
					<path class="st5" d="M40.08,18.61l3.91-0.87c0.2,0.93,0.35,1.88,0.43,2.85l-3.99,0.35C40.36,20.15,40.24,19.37,40.08,18.61"/>
					<path class="st4" d="M40.43,20.95l3.99-0.35c0.05,0.63,0.08,1.26,0.08,1.9c0,0.2,0,0.4-0.01,0.6l-4-0.11
						c0-0.16,0.01-0.33,0.01-0.49C40.5,21.98,40.47,21.46,40.43,20.95"/>
					<path class="st3" d="M40.49,22.99l4,0.11c-0.02,0.76-0.08,1.51-0.18,2.25l-3.97-0.52C40.42,24.23,40.47,23.61,40.49,22.99"/>
					<path class="st2" d="M40.35,24.83l3.97,0.52c-0.09,0.7-0.21,1.39-0.37,2.06l-3.9-0.9C40.17,25.97,40.27,25.41,40.35,24.83"/>
					<path class="st8" d="M40.05,26.52l3.9,0.9c-0.15,0.65-0.33,1.3-0.53,1.93l-3.8-1.25C39.78,27.58,39.92,27.06,40.05,26.52"/>
					<path class="st9" d="M39.61,28.1l3.8,1.25c-0.2,0.62-0.43,1.22-0.68,1.82l-3.68-1.58C39.26,29.1,39.44,28.6,39.61,28.1"/>
					<path class="st10" d="M39.05,29.58l3.68,1.58c-0.25,0.59-0.53,1.17-0.83,1.73L38.37,31C38.62,30.54,38.84,30.06,39.05,29.58"/>
					<path class="st11" d="M38.37,31l3.53,1.89c-0.3,0.56-0.63,1.12-0.98,1.65l-3.35-2.19C37.85,31.91,38.12,31.46,38.37,31"/>
					<path class="st12" d="M37.57,32.34l3.35,2.19c-0.35,0.54-0.73,1.07-1.13,1.57l-3.14-2.48C36.97,33.22,37.28,32.79,37.57,32.34"
						/>
					<path class="st13" d="M36.64,33.63l3.14,2.48c-0.41,0.52-0.84,1.02-1.29,1.5l-2.91-2.75C35.95,34.47,36.31,34.06,36.64,33.63"
						/>
					<path class="st14" d="M35.58,34.86l2.91,2.75c-0.47,0.49-0.95,0.96-1.46,1.41l-2.64-3C34.8,35.65,35.2,35.26,35.58,34.86"/>
					<path class="st15" d="M34.38,36.01l2.64,3c-0.53,0.47-1.08,0.91-1.65,1.32l-2.34-3.24C33.5,36.76,33.95,36.39,34.38,36.01"/>
					<path class="st16" d="M33.03,37.09l2.34,3.24c-0.6,0.43-1.23,0.84-1.87,1.21l-2-3.46C32.03,37.78,32.54,37.45,33.03,37.09"/>
					<path class="st17" d="M31.5,38.09l2,3.46c-0.68,0.39-1.39,0.75-2.11,1.07l-1.62-3.66C30.37,38.7,30.94,38.41,31.5,38.09"/>
					<path class="st18" d="M29.77,38.97l1.62,3.66c-0.78,0.35-1.59,0.65-2.42,0.9l-1.18-3.82C28.47,39.5,29.13,39.25,29.77,38.97"/>
					<path class="st19" d="M27.79,39.71l1.18,3.82c-0.91,0.28-1.85,0.5-2.82,0.66l-0.67-3.94C26.27,40.12,27.04,39.94,27.79,39.71"
						/>
					<path class="st20" d="M25.49,40.25l0.67,3.94c-1.12,0.19-2.27,0.29-3.44,0.3l-0.04-4C23.63,40.49,24.57,40.4,25.49,40.25"/>
					<path class="st21" d="M22.67,40.5l0.04,4c-0.07,0-0.14,0-0.21,0c-1.42,0-2.81-0.13-4.16-0.39l0.76-3.93
						c1.1,0.21,2.24,0.32,3.4,0.32C22.56,40.5,22.61,40.5,22.67,40.5"/>
					<path class="st22" d="M19.1,40.18l-0.76,3.93c-2.23-0.43-4.34-1.19-6.28-2.24l1.9-3.52C15.55,39.2,17.27,39.83,19.1,40.18"/>
					<path class="st23" d="M13.96,38.35l-1.9,3.52c-4.84-2.62-8.6-7-10.39-12.28l3.79-1.29C6.93,32.62,10,36.21,13.96,38.35"/>
					<path class="st22" d="M5.46,28.3l-3.79,1.29C0.97,27.51,0.56,25.3,0.51,23l4-0.09C4.55,24.79,4.88,26.6,5.46,28.3"/>
					<path class="st21" d="M4.51,22.91l-4,0.09c0-0.17-0.01-0.34-0.01-0.5c0-1.32,0.12-2.61,0.34-3.86l3.94,0.7
						C4.6,20.37,4.5,21.42,4.5,22.5C4.5,22.64,4.51,22.77,4.51,22.91"/>
					<path class="st20" d="M4.78,19.34l-3.94-0.7c0.2-1.13,0.49-2.23,0.85-3.3l3.78,1.3C5.18,17.51,4.94,18.41,4.78,19.34"/>
					<path class="st19" d="M5.48,16.64l-3.78-1.3c0.32-0.92,0.69-1.82,1.13-2.68l3.58,1.79C6.05,15.16,5.74,15.89,5.48,16.64"/>
					<path class="st18" d="M6.4,14.45l-3.58-1.79c0.39-0.78,0.82-1.53,1.3-2.25l3.34,2.2C7.07,13.2,6.72,13.82,6.4,14.45"/>
					<path class="st17" d="M7.46,12.61l-3.34-2.2C4.56,9.74,5.03,9.1,5.54,8.49l3.08,2.55C8.21,11.54,7.82,12.07,7.46,12.61"/>
					<path class="st16" d="M8.63,11.04L5.54,8.49c0.48-0.58,0.98-1.13,1.51-1.65l2.81,2.85C9.43,10.12,9.02,10.57,8.63,11.04"/>
					<path class="st15" d="M9.86,9.69L7.05,6.84c0.5-0.49,1.03-0.97,1.57-1.41l2.52,3.1C10.7,8.9,10.27,9.28,9.86,9.69"/>
					<path class="st14" d="M11.15,8.53l-2.52-3.1C9.15,5,9.7,4.6,10.26,4.22l2.23,3.32C12.03,7.85,11.58,8.18,11.15,8.53"/>
					<path class="st13" d="M12.49,7.54l-2.23-3.32c0.54-0.36,1.1-0.71,1.68-1.02l1.92,3.51C13.39,6.97,12.93,7.25,12.49,7.54"/>
					<path class="st12" d="M13.86,6.71L11.94,3.2c0.56-0.31,1.14-0.59,1.73-0.85l1.61,3.66C14.79,6.22,14.32,6.46,13.86,6.71"/>
					<path class="st11" d="M15.28,6.01l-1.61-3.66c0.58-0.25,1.17-0.48,1.78-0.69l1.28,3.79C16.24,5.62,15.75,5.8,15.28,6.01"/>
					<path class="st10" d="M16.73,5.45l-1.28-3.79c0.6-0.2,1.21-0.38,1.84-0.53l0.95,3.89C17.72,5.14,17.22,5.28,16.73,5.45"/>
					<path class="st9" d="M18.23,5.01l-0.95-3.89c0.63-0.15,1.26-0.28,1.91-0.38l0.6,3.95C19.27,4.79,18.75,4.89,18.23,5.01"/>
					<path class="st8" d="M19.8,4.71l-0.6-3.95c0.66-0.1,1.33-0.17,2.01-0.21l0.24,3.99C20.88,4.57,20.34,4.62,19.8,4.71"/>
					<path class="st2" d="M21.44,4.53L21.2,0.54c0.43-0.02,0.86-0.04,1.3-0.04v4C22.14,4.5,21.79,4.51,21.44,4.53"/>
				</g>
			</g>
			<g>
				<circle class="st24" cx="22.5" cy="22.5" r="18"/>
			</g>
		</g>
	</g>
</g>
</svg>
